<svg width="28" height="36" viewBox="0 0 28 36" fill="none" xmlns="http://www.w3.org/2000/svg">
<g clip-path="url(#clip0_43_111)">
<path d="M14.0274 2.93302C18.0055 6.9011 20.1291 11.7944 20.0521 16.8155V18.0141L21.3646 18.6416C23.0604 19.4482 24.3252 20.6993 24.9284 22.1669C24.3988 21.8605 23.8447 21.5803 23.2695 21.3278L19.7695 19.7838L19.1406 22.9001C19.0862 23.1755 19.0131 23.4485 18.9219 23.718H9.1146C8.96877 23.3655 8.85028 23.0129 8.7409 22.6463L7.94793 19.8261L4.72137 21.2362C4.18233 21.473 3.66188 21.7344 3.16278 22.0188C3.77772 20.5682 5.01607 19.3242 6.67189 18.4935L7.92059 17.866V16.7521C7.94312 11.7513 10.0923 6.89523 14.0365 2.93302H14.0274ZM14.0365 0C13.8319 0.000390307 13.6345 0.0579856 13.4805 0.162162L13.3985 0.218566C8.14259 4.76564 5.22407 10.6454 5.19533 16.745C2.96499 17.8643 1.31405 19.5543 0.531018 21.5197C-0.252017 23.485 -0.117354 25.6007 0.911476 27.4971C1.99529 25.6455 3.80707 24.1058 6.08856 23.0975C6.31737 23.8642 6.62209 24.6161 7.00002 25.3467C7.04795 25.4871 7.15419 25.6114 7.3024 25.7006C7.4506 25.7898 7.63258 25.8388 7.82033 25.8402H20.4714C20.7266 25.8402 20.9818 25.6498 21.1094 25.3537C21.4782 24.6592 21.7354 23.9322 21.875 23.1892C24.1609 24.1932 25.9741 25.7342 27.0521 27.5887C28.143 25.7017 28.3119 23.5727 27.5275 21.5967C26.743 19.6206 25.0585 17.9319 22.7865 16.8437C22.8766 10.7082 19.9735 4.77179 14.6563 0.218566C14.5771 0.150085 14.4802 0.0952397 14.3718 0.0575871C14.2635 0.0199344 14.1461 0.000314749 14.0274 0L14.0365 0Z" fill="#4EA8DE"/>
<path d="M14.0274 16.1598C13.3273 16.1598 12.6429 15.9995 12.0605 15.699C11.478 15.3986 11.0236 14.9715 10.7544 14.4716C10.4853 13.9716 10.4135 13.4213 10.5481 12.8898C10.6827 12.3584 11.0177 11.8697 11.5108 11.4853C12.0039 11.1009 12.6331 10.838 13.3191 10.7298C14.005 10.6216 14.7171 10.6729 15.3654 10.8773C16.0137 11.0816 16.5693 11.4298 16.9622 11.8781C17.3551 12.3263 17.5676 12.8545 17.573 13.396V13.396C17.5839 13.7469 17.5053 14.0961 17.3417 14.4235C17.1781 14.751 16.9327 15.0503 16.6195 15.3043C16.3063 15.5583 15.9315 15.7622 15.5164 15.9041C15.1014 16.0461 14.6543 16.1234 14.2006 16.1316C14.1432 16.1387 14.0848 16.1387 14.0274 16.1316V16.1598Z" fill="#4EA8DE"/>
<path d="M18.9583 27.5958C18.7302 27.5901 18.503 27.6198 18.29 27.683C18.0769 27.7462 17.8823 27.8416 17.7176 27.9638C17.5529 28.086 17.4214 28.2323 17.3308 28.3943C17.2402 28.5563 17.1924 28.7307 17.1901 28.9072V33.067C17.1901 33.4297 17.3764 33.7776 17.708 34.0342C18.0396 34.2907 18.4893 34.4348 18.9583 34.4348C19.4273 34.4348 19.877 34.2907 20.2086 34.0342C20.5402 33.7776 20.7265 33.4297 20.7265 33.067V28.9636C20.7338 28.7877 20.6958 28.6126 20.6146 28.4482C20.5335 28.2839 20.4109 28.1337 20.2539 28.0064C20.097 27.879 19.9089 27.7772 19.7005 27.7067C19.4921 27.6362 19.2677 27.5985 19.0403 27.5958H18.9583Z" fill="#5E60CE"/>
<path d="M9.11454 27.5958C8.88261 27.5863 8.65058 27.613 8.43226 27.6743C8.21393 27.7356 8.01378 27.8302 7.8437 27.9526C7.67363 28.0749 7.53711 28.2225 7.44226 28.3865C7.34742 28.5505 7.29619 28.7275 7.29163 28.9072V33.067C7.29163 33.4297 7.47792 33.7777 7.80953 34.0342C8.14114 34.2907 8.59089 34.4348 9.05985 34.4348C9.52882 34.4348 9.97858 34.2907 10.3102 34.0342C10.6418 33.7777 10.8281 33.4297 10.8281 33.067V28.9636C10.8354 28.7877 10.7973 28.6126 10.7162 28.4482C10.6351 28.2839 10.5124 28.1337 10.3555 28.0064C10.1986 27.879 10.0104 27.7772 9.80206 27.7067C9.59369 27.6362 9.36928 27.5985 9.14189 27.5958H9.11454Z" fill="#5E60CE"/>
<path d="M13.8997 27.5958C13.6723 27.592 13.4461 27.623 13.2341 27.6869C13.0222 27.7507 12.8286 27.8463 12.6644 27.9681C12.5002 28.0899 12.3686 28.2355 12.2771 28.3966C12.1857 28.5577 12.1362 28.7312 12.1315 28.9072V34.6392C12.1315 35.002 12.3178 35.3499 12.6494 35.6064C12.981 35.8629 13.4307 36.007 13.8997 36.007C14.3687 36.007 14.8184 35.8629 15.15 35.6064C15.4816 35.3499 15.6679 35.002 15.6679 34.6392V28.9988C15.6752 28.823 15.6372 28.6478 15.556 28.4835C15.4749 28.3191 15.3523 28.1689 15.1953 28.0416C15.0384 27.9143 14.8503 27.8124 14.6419 27.7419C14.4335 27.6714 14.2091 27.6337 13.9817 27.631L13.8997 27.5958Z" fill="#5E60CE"/>
</g>
<defs>
<clipPath id="clip0_43_111">
<rect width="28" height="36" fill="white"/>
</clipPath>
</defs>
</svg>
